<svg width="1400" height="420" viewBox="0 0 1400 420" fill="none" xmlns="http://www.w3.org/2000/svg">
<rect width="1400" height="420" fill="#1E1E1E"/>
<g clip-path="url(#clip0_0_1)">
<rect width="1400" height="420" fill="#404048" fill-opacity="0.133333"/>
<path d="M381 399.5L1317 399.5" stroke="#F5F5F5" stroke-width="5"/>
<path d="M251 376.5L1187 376.5" stroke="#F5F5F5" stroke-width="5"/>
<path d="M121 353.5L1057 353.5" stroke="#F5F5F5" stroke-width="5"/>
<line x1="1379.5" y1="1.09278e-07" x2="1379.5" y2="402" stroke="#F5F5F5" stroke-width="5"/>
<line x1="1356.5" y1="1.12003e-07" x2="1356.5" y2="254" stroke="#F5F5F5" stroke-width="5"/>
<line x1="1333.5" y1="1.09278e-07" x2="1333.5" y2="104" stroke="#F5F5F5" stroke-width="5"/>
<line x1="-1" y1="66.5" x2="121" y2="66.5" stroke="#F5F5F5" stroke-width="5"/>
<line y1="43.5" x2="76" y2="43.5" stroke="#F5F5F5" stroke-width="5"/>
<line y1="20.5" x2="30" y2="20.5" stroke="#F5F5F5" stroke-width="5"/>
<path d="M1202 126.5L1272 126.5" stroke="#F5F5F5" stroke-width="7"/>
<path d="M1176.01 -0.604554L1140.86 130.006H1131.96L1167.12 -0.604554H1176.01Z" fill="#F5F5F5"/>
<path d="M1036 126.5H1106" stroke="#F5F5F5" stroke-width="7"/>
<path d="M940.013 -0.604554L904.856 130.006H895.961L931.117 -0.604554H940.013Z" fill="#F5F5F5"/>
<path d="M1001.12 130.006L965.961 -0.604554H974.803L1009.96 130.006H1001.12Z" fill="#F5F5F5"/>
<line x1="866.5" y1="1.5299e-07" x2="866.5" y2="130" stroke="#F5F5F5" stroke-width="7"/>
<rect x="1266" y="328" width="51" height="51" fill="#F5F5F5"/>
<path d="M831.528 264.273C831.286 261.844 830.214 259.912 828.31 258.477C826.407 257.043 824.013 256.325 821.13 256.325C819.099 256.325 817.309 256.673 815.761 257.369C814.227 258.065 813.019 259.031 812.138 260.267C811.272 261.489 810.839 262.881 810.839 264.443C810.839 265.594 811.087 266.602 811.585 267.469C812.082 268.335 812.749 269.081 813.587 269.706C814.44 270.317 815.377 270.842 816.4 271.283C817.437 271.723 818.481 272.092 819.532 272.391L824.134 273.712C825.526 274.095 826.918 274.585 828.31 275.182C829.702 275.778 830.974 276.531 832.124 277.44C833.289 278.335 834.219 279.436 834.915 280.743C835.626 282.036 835.981 283.591 835.981 285.409C835.981 287.739 835.377 289.834 834.17 291.695C832.962 293.555 831.229 295.033 828.971 296.126C826.712 297.206 824.006 297.746 820.853 297.746C817.884 297.746 815.306 297.256 813.119 296.276C810.931 295.281 809.212 293.911 807.962 292.163C806.712 290.416 806.009 288.392 805.853 286.091H809.944C810.086 287.81 810.654 289.266 811.648 290.459C812.643 291.652 813.935 292.561 815.526 293.186C817.117 293.797 818.893 294.102 820.853 294.102C823.026 294.102 824.958 293.74 826.648 293.016C828.353 292.277 829.688 291.254 830.654 289.947C831.634 288.626 832.124 287.092 832.124 285.345C832.124 283.868 831.741 282.632 830.974 281.638C830.207 280.629 829.134 279.784 827.756 279.102C826.393 278.42 824.809 277.817 823.005 277.291L817.785 275.757C814.362 274.734 811.705 273.321 809.816 271.517C807.927 269.713 806.982 267.412 806.982 264.614C806.982 262.27 807.607 260.21 808.857 258.435C810.121 256.645 811.826 255.253 813.971 254.259C816.13 253.25 818.552 252.746 821.237 252.746C823.95 252.746 826.35 253.243 828.438 254.237C830.526 255.232 832.181 256.602 833.403 258.349C834.638 260.082 835.299 262.057 835.384 264.273H831.528ZM857.501 297.682C854.674 297.682 852.174 296.964 850.001 295.53C847.842 294.095 846.151 292.114 844.93 289.585C843.708 287.043 843.097 284.109 843.097 280.786C843.097 277.433 843.708 274.486 844.93 271.943C846.151 269.386 847.842 267.398 850.001 265.977C852.174 264.543 854.674 263.825 857.501 263.825C860.327 263.825 862.82 264.543 864.979 265.977C867.138 267.412 868.829 269.401 870.05 271.943C871.286 274.486 871.904 277.433 871.904 280.786C871.904 284.109 871.293 287.043 870.072 289.585C868.85 292.114 867.153 294.095 864.979 295.53C862.82 296.964 860.327 297.682 857.501 297.682ZM857.501 294.209C859.773 294.209 861.698 293.598 863.275 292.376C864.852 291.155 866.045 289.528 866.854 287.497C867.678 285.466 868.09 283.229 868.09 280.786C868.09 278.342 867.678 276.098 866.854 274.053C866.045 272.007 864.852 270.366 863.275 269.131C861.698 267.895 859.773 267.277 857.501 267.277C855.242 267.277 853.317 267.895 851.727 269.131C850.15 270.366 848.95 272.007 848.126 274.053C847.316 276.098 846.911 278.342 846.911 280.786C846.911 283.229 847.316 285.466 848.126 287.497C848.95 289.528 850.15 291.155 851.727 292.376C853.303 293.598 855.228 294.209 857.501 294.209ZM893.696 264.273V267.575H877.609V264.273H893.696ZM882.637 297V259.479C882.637 257.717 883.042 256.233 883.852 255.026C884.676 253.818 885.748 252.902 887.069 252.277C888.39 251.652 889.789 251.339 891.267 251.339C892.261 251.339 893.085 251.425 893.738 251.595C894.406 251.751 894.931 251.908 895.315 252.064L894.207 255.388C893.923 255.303 893.575 255.203 893.163 255.089C892.751 254.976 892.233 254.919 891.608 254.919C889.96 254.919 888.689 255.381 887.794 256.304C886.899 257.227 886.451 258.548 886.451 260.267L886.43 297H882.637ZM914.156 264.273V267.575H898.538V264.273H914.156ZM903.417 256.432H907.231V288.456C907.231 289.82 907.465 290.892 907.934 291.673C908.403 292.44 909.013 292.987 909.766 293.314C910.519 293.626 911.322 293.783 912.174 293.783C912.671 293.783 913.097 293.754 913.452 293.697C913.808 293.626 914.12 293.555 914.39 293.484L915.2 296.915C914.83 297.057 914.376 297.185 913.836 297.298C913.296 297.426 912.629 297.49 911.833 297.49C910.441 297.49 909.099 297.185 907.806 296.574C906.528 295.963 905.477 295.054 904.653 293.847C903.829 292.639 903.417 291.141 903.417 289.351V256.432ZM930.034 297L920.148 264.273H924.154L931.909 291.268H932.186L939.921 264.273H943.948L951.618 291.205H951.917L959.672 264.273H963.678L953.792 297H949.871L942.115 270.175H941.711L933.955 297H930.034ZM980.191 297.746C978.216 297.746 976.412 297.362 974.779 296.595C973.145 295.814 971.846 294.692 970.88 293.229C969.914 291.751 969.431 289.962 969.431 287.859C969.431 286.24 969.736 284.876 970.347 283.768C970.958 282.661 971.824 281.751 972.946 281.041C974.069 280.331 975.397 279.77 976.931 279.358C978.465 278.946 980.155 278.626 982.002 278.399C983.834 278.172 985.382 277.973 986.647 277.803C987.925 277.632 988.898 277.362 989.566 276.993C990.233 276.624 990.567 276.027 990.567 275.203V274.436C990.567 272.206 989.9 270.452 988.564 269.173C987.243 267.881 985.34 267.234 982.854 267.234C980.496 267.234 978.571 267.753 977.08 268.79C975.603 269.827 974.566 271.048 973.969 272.455L970.368 271.155C971.107 269.365 972.13 267.937 973.436 266.872C974.743 265.793 976.206 265.018 977.826 264.55C979.445 264.067 981.086 263.825 982.748 263.825C983.998 263.825 985.297 263.989 986.647 264.315C988.01 264.642 989.275 265.21 990.439 266.02C991.604 266.815 992.549 267.93 993.273 269.365C993.998 270.786 994.36 272.589 994.36 274.777V297H990.567V291.822H990.333C989.878 292.788 989.203 293.726 988.309 294.635C987.414 295.544 986.292 296.29 984.942 296.872C983.593 297.455 982.009 297.746 980.191 297.746ZM980.702 294.273C982.719 294.273 984.466 293.825 985.944 292.93C987.421 292.036 988.557 290.849 989.353 289.372C990.162 287.881 990.567 286.24 990.567 284.45V279.72C990.283 279.99 989.807 280.232 989.14 280.445C988.486 280.658 987.726 280.849 986.86 281.02C986.007 281.176 985.155 281.311 984.303 281.425C983.451 281.538 982.684 281.638 982.002 281.723C980.155 281.95 978.578 282.305 977.272 282.788C975.965 283.271 974.963 283.939 974.267 284.791C973.571 285.629 973.223 286.709 973.223 288.03C973.223 290.018 973.934 291.56 975.354 292.653C976.775 293.733 978.557 294.273 980.702 294.273ZM1004.45 297V264.273H1008.13V269.301H1008.41C1009.06 267.653 1010.2 266.325 1011.82 265.317C1013.45 264.294 1015.3 263.783 1017.36 263.783C1017.67 263.783 1018.02 263.79 1018.4 263.804C1018.79 263.818 1019.11 263.832 1019.36 263.847V267.703C1019.19 267.675 1018.89 267.632 1018.47 267.575C1018.04 267.518 1017.58 267.49 1017.08 267.49C1015.38 267.49 1013.86 267.852 1012.52 268.577C1011.2 269.287 1010.16 270.274 1009.39 271.538C1008.62 272.803 1008.24 274.244 1008.24 275.864V297H1004.45ZM1038.07 297.682C1035.02 297.682 1032.37 296.972 1030.14 295.551C1027.91 294.116 1026.19 292.135 1024.97 289.607C1023.76 287.064 1023.16 284.138 1023.16 280.828C1023.16 277.533 1023.76 274.607 1024.97 272.05C1026.19 269.479 1027.87 267.469 1030.02 266.02C1032.18 264.557 1034.67 263.825 1037.5 263.825C1039.27 263.825 1040.98 264.152 1042.63 264.805C1044.28 265.445 1045.76 266.432 1047.06 267.767C1048.38 269.088 1049.43 270.757 1050.19 272.774C1050.96 274.777 1051.34 277.149 1051.34 279.891V281.766H1025.78V278.42H1047.47C1047.47 276.318 1047.04 274.429 1046.19 272.753C1045.35 271.062 1044.18 269.727 1042.67 268.747C1041.18 267.767 1039.46 267.277 1037.5 267.277C1035.42 267.277 1033.6 267.831 1032.02 268.939C1030.44 270.047 1029.21 271.51 1028.31 273.328C1027.43 275.146 1026.98 277.135 1026.97 279.294V281.297C1026.97 283.896 1027.42 286.169 1028.31 288.115C1029.22 290.047 1030.51 291.545 1032.17 292.611C1033.83 293.676 1035.8 294.209 1038.07 294.209C1039.62 294.209 1040.98 293.967 1042.14 293.484C1043.32 293.001 1044.31 292.355 1045.1 291.545C1045.91 290.722 1046.52 289.82 1046.93 288.839L1050.54 290.011C1050.04 291.389 1049.22 292.661 1048.08 293.825C1046.96 294.99 1045.56 295.928 1043.87 296.638C1042.19 297.334 1040.26 297.682 1038.07 297.682ZM1089.81 297.682C1086.75 297.682 1084.11 296.972 1081.88 295.551C1079.65 294.116 1077.93 292.135 1076.71 289.607C1075.5 287.064 1074.89 284.138 1074.89 280.828C1074.89 277.533 1075.5 274.607 1076.71 272.05C1077.93 269.479 1079.61 267.469 1081.75 266.02C1083.91 264.557 1086.41 263.825 1089.23 263.825C1091.01 263.825 1092.72 264.152 1094.37 264.805C1096.02 265.445 1097.49 266.432 1098.8 267.767C1100.12 269.088 1101.17 270.757 1101.93 272.774C1102.7 274.777 1103.08 277.149 1103.08 279.891V281.766H1077.51V278.42H1099.21C1099.21 276.318 1098.78 274.429 1097.93 272.753C1097.09 271.062 1095.92 269.727 1094.41 268.747C1092.92 267.767 1091.19 267.277 1089.23 267.277C1087.16 267.277 1085.33 267.831 1083.76 268.939C1082.18 270.047 1080.95 271.51 1080.05 273.328C1079.17 275.146 1078.72 277.135 1078.71 279.294V281.297C1078.71 283.896 1079.16 286.169 1080.05 288.115C1080.96 290.047 1082.25 291.545 1083.91 292.611C1085.57 293.676 1087.54 294.209 1089.81 294.209C1091.36 294.209 1092.71 293.967 1093.88 293.484C1095.06 293.001 1096.04 292.355 1096.84 291.545C1097.65 290.722 1098.26 289.82 1098.67 288.839L1102.27 290.011C1101.78 291.389 1100.96 292.661 1099.82 293.825C1098.7 294.99 1097.29 295.928 1095.6 296.638C1093.93 297.334 1092 297.682 1089.81 297.682ZM1115.23 276.545V297H1111.44V264.273H1115.13V269.408H1115.47C1116.23 267.732 1117.43 266.389 1119.05 265.381C1120.68 264.358 1122.7 263.847 1125.1 263.847C1127.3 263.847 1129.23 264.308 1130.89 265.232C1132.57 266.141 1133.87 267.483 1134.79 269.259C1135.73 271.034 1136.2 273.214 1136.2 275.8V297H1132.41V276.034C1132.41 273.349 1131.65 271.226 1130.15 269.663C1128.66 268.101 1126.65 267.32 1124.14 267.32C1122.42 267.32 1120.89 267.689 1119.56 268.428C1118.22 269.166 1117.17 270.232 1116.38 271.624C1115.62 273.001 1115.23 274.642 1115.23 276.545ZM1158.67 309.955C1156.44 309.955 1154.49 309.663 1152.81 309.081C1151.14 308.513 1149.72 307.732 1148.57 306.737C1147.42 305.743 1146.53 304.628 1145.89 303.392L1149 301.347C1149.47 302.17 1150.09 302.98 1150.87 303.776C1151.67 304.571 1152.7 305.232 1153.96 305.757C1155.24 306.283 1156.81 306.545 1158.67 306.545C1161.57 306.545 1163.91 305.821 1165.68 304.372C1167.47 302.923 1168.37 300.672 1168.37 297.618V290.246H1168.03C1167.59 291.24 1166.95 292.234 1166.13 293.229C1165.31 294.209 1164.23 295.026 1162.89 295.679C1161.57 296.332 1159.93 296.659 1157.97 296.659C1155.36 296.659 1153.03 296.013 1151 294.72C1148.99 293.428 1147.39 291.581 1146.23 289.18C1145.08 286.766 1144.5 283.889 1144.5 280.551C1144.5 277.241 1145.06 274.33 1146.19 271.815C1147.32 269.301 1148.91 267.341 1150.94 265.935C1152.97 264.528 1155.33 263.825 1158.03 263.825C1160.04 263.825 1161.7 264.18 1163.02 264.891C1164.34 265.587 1165.4 266.453 1166.19 267.49C1167 268.527 1167.64 269.536 1168.09 270.516H1168.47V264.273H1172.18V297.852C1172.18 300.622 1171.59 302.902 1170.41 304.692C1169.23 306.482 1167.63 307.803 1165.6 308.655C1163.57 309.521 1161.26 309.955 1158.67 309.955ZM1158.42 293.186C1160.52 293.186 1162.32 292.682 1163.81 291.673C1165.3 290.651 1166.44 289.187 1167.24 287.284C1168.03 285.381 1168.43 283.115 1168.43 280.487C1168.43 277.93 1168.04 275.665 1167.26 273.69C1166.48 271.702 1165.34 270.139 1163.85 269.003C1162.37 267.852 1160.56 267.277 1158.42 267.277C1156.23 267.277 1154.38 267.866 1152.88 269.045C1151.37 270.224 1150.24 271.815 1149.47 273.818C1148.7 275.807 1148.32 278.03 1148.32 280.487C1148.32 282.987 1148.71 285.196 1149.49 287.114C1150.27 289.017 1151.41 290.509 1152.92 291.588C1154.43 292.653 1156.26 293.186 1158.42 293.186ZM1182.26 297V264.273H1186.08V297H1182.26ZM1184.2 258.648C1183.42 258.648 1182.75 258.385 1182.2 257.859C1181.65 257.32 1181.37 256.673 1181.37 255.92C1181.37 255.168 1181.65 254.528 1182.2 254.003C1182.75 253.463 1183.42 253.193 1184.2 253.193C1184.98 253.193 1185.65 253.463 1186.21 254.003C1186.76 254.528 1187.04 255.168 1187.04 255.92C1187.04 256.673 1186.76 257.32 1186.21 257.859C1185.65 258.385 1184.98 258.648 1184.2 258.648ZM1199.9 276.545V297H1196.11V264.273H1199.79V269.408H1200.14C1200.9 267.732 1202.1 266.389 1203.72 265.381C1205.35 264.358 1207.37 263.847 1209.77 263.847C1211.97 263.847 1213.9 264.308 1215.56 265.232C1217.24 266.141 1218.54 267.483 1219.46 269.259C1220.4 271.034 1220.87 273.214 1220.87 275.8V297H1217.07V276.034C1217.07 273.349 1216.32 271.226 1214.82 269.663C1213.32 268.101 1211.32 267.32 1208.81 267.32C1207.09 267.32 1205.56 267.689 1204.23 268.428C1202.89 269.166 1201.83 270.232 1201.05 271.624C1200.28 273.001 1199.9 274.642 1199.9 276.545ZM1244.09 297.682C1241.03 297.682 1238.39 296.972 1236.16 295.551C1233.93 294.116 1232.2 292.135 1230.98 289.607C1229.78 287.064 1229.17 284.138 1229.17 280.828C1229.17 277.533 1229.78 274.607 1230.98 272.05C1232.2 269.479 1233.89 267.469 1236.03 266.02C1238.19 264.557 1240.68 263.825 1243.51 263.825C1245.29 263.825 1247 264.152 1248.65 264.805C1250.29 265.445 1251.77 266.432 1253.08 267.767C1254.4 269.088 1255.44 270.757 1256.21 272.774C1256.98 274.777 1257.36 277.149 1257.36 279.891V281.766H1231.79V278.42H1253.48C1253.48 276.318 1253.06 274.429 1252.2 272.753C1251.37 271.062 1250.19 269.727 1248.69 268.747C1247.2 267.767 1245.47 267.277 1243.51 267.277C1241.44 267.277 1239.61 267.831 1238.04 268.939C1236.46 270.047 1235.22 271.51 1234.33 273.328C1233.45 275.146 1233 277.135 1232.99 279.294V281.297C1232.99 283.896 1233.43 286.169 1234.33 288.115C1235.24 290.047 1236.52 291.545 1238.18 292.611C1239.85 293.676 1241.81 294.209 1244.09 294.209C1245.63 294.209 1246.99 293.967 1248.16 293.484C1249.33 293.001 1250.32 292.355 1251.12 291.545C1251.93 290.722 1252.54 289.82 1252.95 288.839L1256.55 290.011C1256.05 291.389 1255.24 292.661 1254.1 293.825C1252.98 294.99 1251.57 295.928 1249.88 296.638C1248.21 297.334 1246.27 297.682 1244.09 297.682ZM1278.95 297.682C1275.9 297.682 1273.25 296.972 1271.02 295.551C1268.79 294.116 1267.07 292.135 1265.85 289.607C1264.64 287.064 1264.03 284.138 1264.03 280.828C1264.03 277.533 1264.64 274.607 1265.85 272.05C1267.07 269.479 1268.75 267.469 1270.9 266.02C1273.05 264.557 1275.55 263.825 1278.37 263.825C1280.15 263.825 1281.86 264.152 1283.51 264.805C1285.16 265.445 1286.63 266.432 1287.94 267.767C1289.26 269.088 1290.31 270.757 1291.07 272.774C1291.84 274.777 1292.22 277.149 1292.22 279.891V281.766H1266.66V278.42H1288.35C1288.35 276.318 1287.92 274.429 1287.07 272.753C1286.23 271.062 1285.06 269.727 1283.55 268.747C1282.06 267.767 1280.33 267.277 1278.37 267.277C1276.3 267.277 1274.48 267.831 1272.9 268.939C1271.32 270.047 1270.09 271.51 1269.19 273.328C1268.31 275.146 1267.86 277.135 1267.85 279.294V281.297C1267.85 283.896 1268.3 286.169 1269.19 288.115C1270.1 290.047 1271.39 291.545 1273.05 292.611C1274.71 293.676 1276.68 294.209 1278.95 294.209C1280.5 294.209 1281.85 293.967 1283.02 293.484C1284.2 293.001 1285.19 292.355 1285.98 291.545C1286.79 290.722 1287.4 289.82 1287.81 288.839L1291.41 290.011C1290.92 291.389 1290.1 292.661 1288.96 293.825C1287.84 294.99 1286.44 295.928 1284.75 296.638C1283.07 297.334 1281.14 297.682 1278.95 297.682ZM1300.58 297V264.273H1304.27V269.301H1304.54C1305.2 267.653 1306.33 266.325 1307.95 265.317C1309.59 264.294 1311.43 263.783 1313.49 263.783C1313.81 263.783 1314.15 263.79 1314.54 263.804C1314.92 263.818 1315.24 263.832 1315.5 263.847V267.703C1315.33 267.675 1315.03 267.632 1314.6 267.575C1314.18 267.518 1313.71 267.49 1313.22 267.49C1311.51 267.49 1309.99 267.852 1308.66 268.577C1307.34 269.287 1306.29 270.274 1305.52 271.538C1304.76 272.803 1304.37 274.244 1304.37 275.864V297H1300.58Z" fill="#F5F5F5"/>
<path d="M813.494 184.364V228H809.509V188.54H809.254L799.026 195.337V191.203L809.339 184.364H813.494ZM840.213 184.364V228H836.228V188.54H835.972L825.745 195.337V191.203L836.058 184.364H840.213ZM866.505 195.273V198.575H850.887V195.273H866.505ZM855.767 187.432H859.58V219.456C859.58 220.82 859.815 221.892 860.284 222.673C860.752 223.44 861.363 223.987 862.116 224.314C862.869 224.626 863.671 224.783 864.524 224.783C865.021 224.783 865.447 224.754 865.802 224.697C866.157 224.626 866.47 224.555 866.74 224.484L867.549 227.915C867.18 228.057 866.725 228.185 866.186 228.298C865.646 228.426 864.978 228.49 864.183 228.49C862.791 228.49 861.448 228.185 860.156 227.574C858.877 226.963 857.826 226.054 857.002 224.847C856.178 223.639 855.767 222.141 855.767 220.351V187.432ZM879.614 207.545V228H875.822V184.364H879.614V200.408H879.955C880.722 198.717 881.908 197.368 883.513 196.359C885.133 195.351 887.178 194.847 889.65 194.847C891.866 194.847 893.812 195.301 895.488 196.21C897.164 197.119 898.471 198.462 899.408 200.237C900.346 202.013 900.814 204.2 900.814 206.8V228H897.001V207.034C897.001 204.335 896.248 202.212 894.742 200.663C893.251 199.101 891.233 198.32 888.691 198.32C886.944 198.32 885.388 198.689 884.025 199.428C882.661 200.166 881.581 201.232 880.786 202.624C880.005 204.001 879.614 205.642 879.614 207.545ZM940.163 240.955C937.933 240.955 935.98 240.663 934.303 240.081C932.627 239.513 931.214 238.732 930.063 237.737C928.913 236.743 928.018 235.628 927.379 234.392L930.49 232.347C930.958 233.17 931.583 233.98 932.365 234.776C933.16 235.571 934.19 236.232 935.454 236.757C936.732 237.283 938.302 237.545 940.163 237.545C943.061 237.545 945.397 236.821 947.173 235.372C948.963 233.923 949.857 231.672 949.857 228.618V221.246H949.517C949.076 222.24 948.444 223.234 947.62 224.229C946.796 225.209 945.717 226.026 944.382 226.679C943.061 227.332 941.42 227.659 939.46 227.659C936.846 227.659 934.524 227.013 932.492 225.72C930.475 224.428 928.884 222.581 927.72 220.18C926.569 217.766 925.994 214.889 925.994 211.551C925.994 208.241 926.555 205.33 927.677 202.815C928.813 200.301 930.397 198.341 932.428 196.935C934.46 195.528 936.825 194.825 939.524 194.825C941.526 194.825 943.188 195.18 944.509 195.891C945.83 196.587 946.889 197.453 947.684 198.49C948.494 199.527 949.126 200.536 949.58 201.516H949.964V195.273H953.671V228.852C953.671 231.622 953.082 233.902 951.903 235.692C950.724 237.482 949.119 238.803 947.088 239.655C945.056 240.521 942.748 240.955 940.163 240.955ZM939.907 224.186C942.009 224.186 943.806 223.682 945.298 222.673C946.789 221.651 947.933 220.187 948.728 218.284C949.524 216.381 949.921 214.115 949.921 211.487C949.921 208.93 949.531 206.665 948.749 204.69C947.968 202.702 946.832 201.139 945.34 200.003C943.863 198.852 942.052 198.277 939.907 198.277C937.72 198.277 935.873 198.866 934.367 200.045C932.862 201.224 931.725 202.815 930.958 204.818C930.191 206.807 929.808 209.03 929.808 211.487C929.808 213.987 930.198 216.196 930.98 218.114C931.761 220.017 932.904 221.509 934.41 222.588C935.916 223.653 937.748 224.186 939.907 224.186ZM963.712 228V195.273H967.398V200.301H967.675C968.329 198.653 969.465 197.325 971.084 196.317C972.718 195.294 974.564 194.783 976.624 194.783C976.937 194.783 977.285 194.79 977.668 194.804C978.052 194.818 978.371 194.832 978.627 194.847V198.703C978.456 198.675 978.158 198.632 977.732 198.575C977.306 198.518 976.844 198.49 976.347 198.49C974.643 198.49 973.123 198.852 971.787 199.577C970.466 200.287 969.422 201.274 968.655 202.538C967.888 203.803 967.505 205.244 967.505 206.864V228H963.712ZM994.24 228.746C992.265 228.746 990.461 228.362 988.828 227.595C987.194 226.814 985.894 225.692 984.928 224.229C983.963 222.751 983.48 220.962 983.48 218.859C983.48 217.24 983.785 215.876 984.396 214.768C985.007 213.661 985.873 212.751 986.995 212.041C988.117 211.331 989.445 210.77 990.98 210.358C992.514 209.946 994.204 209.626 996.051 209.399C997.883 209.172 999.431 208.973 1000.7 208.803C1001.97 208.632 1002.95 208.362 1003.61 207.993C1004.28 207.624 1004.62 207.027 1004.62 206.203V205.436C1004.62 203.206 1003.95 201.452 1002.61 200.173C1001.29 198.881 999.389 198.234 996.903 198.234C994.545 198.234 992.62 198.753 991.129 199.79C989.651 200.827 988.615 202.048 988.018 203.455L984.417 202.155C985.156 200.365 986.178 198.937 987.485 197.872C988.792 196.793 990.255 196.018 991.874 195.55C993.494 195.067 995.134 194.825 996.796 194.825C998.046 194.825 999.346 194.989 1000.7 195.315C1002.06 195.642 1003.32 196.21 1004.49 197.02C1005.65 197.815 1006.6 198.93 1007.32 200.365C1008.05 201.786 1008.41 203.589 1008.41 205.777V228H1004.62V222.822H1004.38C1003.93 223.788 1003.25 224.726 1002.36 225.635C1001.46 226.544 1000.34 227.29 998.991 227.872C997.642 228.455 996.058 228.746 994.24 228.746ZM994.751 225.273C996.768 225.273 998.515 224.825 999.992 223.93C1001.47 223.036 1002.61 221.849 1003.4 220.372C1004.21 218.881 1004.62 217.24 1004.62 215.45V210.72C1004.33 210.99 1003.86 211.232 1003.19 211.445C1002.53 211.658 1001.78 211.849 1000.91 212.02C1000.06 212.176 999.204 212.311 998.352 212.425C997.499 212.538 996.732 212.638 996.051 212.723C994.204 212.95 992.627 213.305 991.32 213.788C990.014 214.271 989.012 214.939 988.316 215.791C987.62 216.629 987.272 217.709 987.272 219.03C987.272 221.018 987.982 222.56 989.403 223.653C990.823 224.733 992.606 225.273 994.751 225.273ZM1030.28 228.682C1027.6 228.682 1025.24 227.972 1023.23 226.551C1021.21 225.131 1019.63 223.149 1018.5 220.607C1017.38 218.064 1016.81 215.102 1016.81 211.722C1016.81 208.355 1017.38 205.408 1018.5 202.879C1019.63 200.337 1021.22 198.362 1023.25 196.956C1025.28 195.536 1027.65 194.825 1030.34 194.825C1032.33 194.825 1033.99 195.18 1035.31 195.891C1036.63 196.587 1037.69 197.453 1038.48 198.49C1039.28 199.527 1039.9 200.536 1040.34 201.516H1040.68V184.364H1044.49V228H1040.78V221.928H1040.34C1039.9 222.922 1039.27 223.945 1038.46 224.996C1037.65 226.033 1036.58 226.906 1035.24 227.616C1033.92 228.327 1032.27 228.682 1030.28 228.682ZM1030.73 225.209C1032.84 225.209 1034.65 224.634 1036.14 223.483C1037.63 222.318 1038.77 220.72 1039.55 218.689C1040.34 216.643 1040.74 214.3 1040.74 211.658C1040.74 209.044 1040.35 206.736 1039.57 204.733C1038.79 202.716 1037.65 201.139 1036.16 200.003C1034.67 198.852 1032.86 198.277 1030.73 198.277C1028.54 198.277 1026.69 198.874 1025.19 200.067C1023.7 201.246 1022.56 202.844 1021.78 204.861C1021.01 206.878 1020.63 209.143 1020.63 211.658C1020.63 214.2 1021.02 216.494 1021.8 218.54C1022.58 220.585 1023.72 222.212 1025.21 223.419C1026.71 224.612 1028.55 225.209 1030.73 225.209ZM1068.53 228.682C1065.47 228.682 1062.83 227.972 1060.6 226.551C1058.37 225.116 1056.64 223.135 1055.42 220.607C1054.21 218.064 1053.61 215.138 1053.61 211.828C1053.61 208.533 1054.21 205.607 1055.42 203.05C1056.64 200.479 1058.33 198.469 1060.47 197.02C1062.63 195.557 1065.12 194.825 1067.95 194.825C1069.73 194.825 1071.44 195.152 1073.09 195.805C1074.73 196.445 1076.21 197.432 1077.52 198.767C1078.84 200.088 1079.88 201.757 1080.65 203.774C1081.42 205.777 1081.8 208.149 1081.8 210.891V212.766H1056.23V209.42H1077.92C1077.92 207.318 1077.5 205.429 1076.64 203.753C1075.81 202.062 1074.63 200.727 1073.13 199.747C1071.64 198.767 1069.91 198.277 1067.95 198.277C1065.88 198.277 1064.05 198.831 1062.47 199.939C1060.9 201.047 1059.66 202.51 1058.77 204.328C1057.89 206.146 1057.44 208.135 1057.42 210.294V212.297C1057.42 214.896 1057.87 217.169 1058.77 219.115C1059.68 221.047 1060.96 222.545 1062.62 223.611C1064.29 224.676 1066.25 225.209 1068.53 225.209C1070.07 225.209 1071.43 224.967 1072.6 224.484C1073.77 224.001 1074.76 223.355 1075.56 222.545C1076.37 221.722 1076.98 220.82 1077.39 219.839L1080.99 221.011C1080.49 222.389 1079.68 223.661 1078.54 224.825C1077.42 225.99 1076.01 226.928 1074.32 227.638C1072.65 228.334 1070.71 228.682 1068.53 228.682ZM1129.02 202.453L1125.55 203.433C1125.21 202.453 1124.72 201.565 1124.1 200.77C1123.47 199.974 1122.66 199.342 1121.65 198.874C1120.65 198.405 1119.42 198.17 1117.94 198.17C1115.73 198.17 1113.91 198.696 1112.49 199.747C1111.07 200.798 1110.36 202.155 1110.36 203.817C1110.36 205.223 1110.84 206.366 1111.81 207.247C1112.79 208.114 1114.29 208.803 1116.32 209.314L1121.27 210.528C1124.01 211.196 1126.06 212.254 1127.42 213.703C1128.8 215.152 1129.49 216.97 1129.49 219.158C1129.49 221.004 1128.98 222.645 1127.96 224.08C1126.93 225.514 1125.51 226.643 1123.67 227.467C1121.85 228.277 1119.75 228.682 1117.34 228.682C1114.15 228.682 1111.51 227.964 1109.44 226.53C1107.37 225.081 1106.04 222.993 1105.46 220.266L1109.1 219.371C1109.57 221.317 1110.48 222.787 1111.85 223.781C1113.23 224.776 1115.04 225.273 1117.28 225.273C1119.8 225.273 1121.81 224.712 1123.31 223.589C1124.82 222.453 1125.57 221.033 1125.57 219.328C1125.57 218.007 1125.13 216.899 1124.25 216.004C1123.37 215.095 1122.03 214.428 1120.24 214.001L1114.89 212.723C1112.05 212.041 1109.95 210.962 1108.59 209.484C1107.22 208.007 1106.54 206.175 1106.54 203.987C1106.54 202.183 1107.03 200.599 1108.01 199.236C1108.99 197.858 1110.34 196.778 1112.06 195.997C1113.78 195.216 1115.74 194.825 1117.94 194.825C1120.94 194.825 1123.33 195.507 1125.12 196.871C1126.93 198.22 1128.23 200.081 1129.02 202.453ZM1150.68 195.273V198.575H1135.07V195.273H1150.68ZM1139.95 187.432H1143.76V219.456C1143.76 220.82 1143.99 221.892 1144.46 222.673C1144.93 223.44 1145.54 223.987 1146.3 224.314C1147.05 224.626 1147.85 224.783 1148.7 224.783C1149.2 224.783 1149.63 224.754 1149.98 224.697C1150.34 224.626 1150.65 224.555 1150.92 224.484L1151.73 227.915C1151.36 228.057 1150.91 228.185 1150.37 228.298C1149.83 228.426 1149.16 228.49 1148.36 228.49C1146.97 228.49 1145.63 228.185 1144.34 227.574C1143.06 226.963 1142.01 226.054 1141.18 224.847C1140.36 223.639 1139.95 222.141 1139.95 220.351V187.432ZM1180.09 215.493V195.273H1183.89V228H1180.09V222.567H1179.8C1179.03 224.243 1177.81 225.642 1176.15 226.764C1174.49 227.872 1172.46 228.426 1170.06 228.426C1167.97 228.426 1166.12 227.972 1164.5 227.062C1162.88 226.139 1161.61 224.79 1160.68 223.014C1159.76 221.239 1159.3 219.058 1159.3 216.473V195.273H1163.09V216.239C1163.09 218.795 1163.84 220.855 1165.35 222.418C1166.85 223.966 1168.79 224.74 1171.14 224.74C1172.62 224.74 1174.04 224.385 1175.41 223.675C1176.77 222.964 1177.89 221.928 1178.77 220.564C1179.65 219.186 1180.09 217.496 1180.09 215.493ZM1205.71 228.682C1203.03 228.682 1200.67 227.972 1198.66 226.551C1196.64 225.131 1195.06 223.149 1193.93 220.607C1192.8 218.064 1192.24 215.102 1192.24 211.722C1192.24 208.355 1192.8 205.408 1193.93 202.879C1195.06 200.337 1196.65 198.362 1198.68 196.956C1200.71 195.536 1203.07 194.825 1205.77 194.825C1207.76 194.825 1209.42 195.18 1210.74 195.891C1212.06 196.587 1213.12 197.453 1213.91 198.49C1214.71 199.527 1215.33 200.536 1215.77 201.516H1216.11V184.364H1219.92V228H1216.21V221.928H1215.77C1215.33 222.922 1214.7 223.945 1213.89 224.996C1213.08 226.033 1212.01 226.906 1210.67 227.616C1209.35 228.327 1207.7 228.682 1205.71 228.682ZM1206.16 225.209C1208.27 225.209 1210.08 224.634 1211.57 223.483C1213.06 222.318 1214.2 220.72 1214.98 218.689C1215.77 216.643 1216.17 214.3 1216.17 211.658C1216.17 209.044 1215.78 206.736 1215 204.733C1214.22 202.716 1213.08 201.139 1211.59 200.003C1210.1 198.852 1208.29 198.277 1206.16 198.277C1203.97 198.277 1202.12 198.874 1200.62 200.067C1199.13 201.246 1197.99 202.844 1197.21 204.861C1196.44 206.878 1196.06 209.143 1196.06 211.658C1196.06 214.2 1196.45 216.494 1197.23 218.54C1198.01 220.585 1199.15 222.212 1200.64 223.419C1202.14 224.612 1203.98 225.209 1206.16 225.209ZM1243.96 228.682C1240.9 228.682 1238.26 227.972 1236.03 226.551C1233.8 225.116 1232.07 223.135 1230.85 220.607C1229.64 218.064 1229.04 215.138 1229.04 211.828C1229.04 208.533 1229.64 205.607 1230.85 203.05C1232.07 200.479 1233.76 198.469 1235.9 197.02C1238.06 195.557 1240.55 194.825 1243.38 194.825C1245.16 194.825 1246.87 195.152 1248.52 195.805C1250.16 196.445 1251.64 197.432 1252.95 198.767C1254.27 200.088 1255.31 201.757 1256.08 203.774C1256.85 205.777 1257.23 208.149 1257.23 210.891V212.766H1231.66V209.42H1253.35C1253.35 207.318 1252.93 205.429 1252.07 203.753C1251.24 202.062 1250.06 200.727 1248.56 199.747C1247.07 198.767 1245.34 198.277 1243.38 198.277C1241.31 198.277 1239.48 198.831 1237.9 199.939C1236.33 201.047 1235.09 202.51 1234.2 204.328C1233.32 206.146 1232.87 208.135 1232.85 210.294V212.297C1232.85 214.896 1233.3 217.169 1234.2 219.115C1235.11 221.047 1236.39 222.545 1238.05 223.611C1239.72 224.676 1241.68 225.209 1243.96 225.209C1245.5 225.209 1246.86 224.967 1248.03 224.484C1249.2 224.001 1250.19 223.355 1250.99 222.545C1251.8 221.722 1252.41 220.82 1252.82 219.839L1256.42 221.011C1255.92 222.389 1255.11 223.661 1253.97 224.825C1252.85 225.99 1251.44 226.928 1249.75 227.638C1248.07 228.334 1246.14 228.682 1243.96 228.682ZM1269.38 207.545V228H1265.59V195.273H1269.27V200.408H1269.61C1270.38 198.732 1271.57 197.389 1273.19 196.381C1274.83 195.358 1276.84 194.847 1279.24 194.847C1281.45 194.847 1283.38 195.308 1285.04 196.232C1286.72 197.141 1288.02 198.483 1288.94 200.259C1289.88 202.034 1290.35 204.214 1290.35 206.8V228H1286.55V207.034C1286.55 204.349 1285.8 202.226 1284.29 200.663C1282.8 199.101 1280.8 198.32 1278.29 198.32C1276.57 198.32 1275.04 198.689 1273.71 199.428C1272.37 200.166 1271.31 201.232 1270.53 202.624C1269.76 204.001 1269.38 205.642 1269.38 207.545ZM1313.22 195.273V198.575H1297.61V195.273H1313.22ZM1302.49 187.432H1306.3V219.456C1306.3 220.82 1306.53 221.892 1307 222.673C1307.47 223.44 1308.08 223.987 1308.83 224.314C1309.59 224.626 1310.39 224.783 1311.24 224.783C1311.74 224.783 1312.17 224.754 1312.52 224.697C1312.88 224.626 1313.19 224.555 1313.46 224.484L1314.27 227.915C1313.9 228.057 1313.44 228.185 1312.9 228.298C1312.36 228.426 1311.7 228.49 1310.9 228.49C1309.51 228.49 1308.17 228.185 1306.87 227.574C1305.6 226.963 1304.54 226.054 1303.72 224.847C1302.9 223.639 1302.49 222.141 1302.49 220.351V187.432Z" fill="#F5F5F5"/>
<path d="M357.346 213.602L357.161 197.445H360.115L431.025 127.182H445.705L380.613 191.812L379.505 192.274L357.346 213.602ZM347.559 269V79.9091H358.823V269H347.559ZM434.256 269L374.426 193.382L382.551 185.903L448.659 269H434.256ZM474.281 269V259.49L557.747 138.908V137.892H478.897V127.182H572.058V136.876L489.331 257.274V258.29H575.382V269H474.281Z" fill="#F5F5F5"/>
</g>
<defs>
<clipPath id="clip0_0_1">
<rect width="1400" height="420" fill="white"/>
</clipPath>
</defs>
</svg>
